<?xml version="1.0" encoding="UTF-8" standalone="no"?>
<!-- Created with Inkscape (http://www.inkscape.org/) -->

<svg
   xmlns:dc="http://purl.org/dc/elements/1.1/"
   xmlns:cc="http://creativecommons.org/ns#"
   xmlns:rdf="http://www.w3.org/1999/02/22-rdf-syntax-ns#"
   xmlns:svg="http://www.w3.org/2000/svg"
   xmlns="http://www.w3.org/2000/svg"
   xmlns:sodipodi="http://sodipodi.sourceforge.net/DTD/sodipodi-0.dtd"
   xmlns:inkscape="http://www.inkscape.org/namespaces/inkscape"
   width="13.272299mm"
   height="13.512924mm"
   viewBox="0 0 47.02783 47.88044"
   id="svg4329"
   version="1.1"
   inkscape:version="0.91 r13725"
   sodipodi:docname="africanprogrammer-slower-internet.svg">
  <defs
     id="defs4331" />
  <sodipodi:namedview
     id="base"
     pagecolor="#ffffff"
     bordercolor="#666666"
     borderopacity="1.0"
     inkscape:pageopacity="0.0"
     inkscape:pageshadow="2"
     inkscape:zoom="1.979899"
     inkscape:cx="163.47412"
     inkscape:cy="-128.72565"
     inkscape:document-units="px"
     inkscape:current-layer="layer1"
     showgrid="false"
     fit-margin-top="0"
     fit-margin-left="0"
     fit-margin-right="0"
     fit-margin-bottom="0"
     inkscape:window-width="1536"
     inkscape:window-height="801"
     inkscape:window-x="-8"
     inkscape:window-y="-8"
     inkscape:window-maximized="1" />
  <metadata
     id="metadata4334">
    <rdf:RDF>
      <cc:Work
         rdf:about="">
        <dc:format>image/svg+xml</dc:format>
        <dc:type
           rdf:resource="http://purl.org/dc/dcmitype/StillImage" />
        <dc:title></dc:title>
      </cc:Work>
    </rdf:RDF>
  </metadata>
  <g
     inkscape:label="Layer 1"
     inkscape:groupmode="layer"
     id="layer1"
     transform="translate(483.51391,103.00659)">
    <g
       transform="translate(-483.51386,-104.38988)"
       id="g4278">
      <g
         id="g4230">
        <path
           style="fill:#542710;fill-opacity:1;fill-rule:evenodd;stroke:#000000;stroke-width:0.39650744;stroke-linecap:round;stroke-linejoin:round;stroke-miterlimit:4;stroke-dasharray:none;stroke-opacity:1"
           d="m 29.757979,42.689768 c 11.001469,0.428517 11.001469,0.428517 11.001469,0.428517 l 0,1.706278 -11.001469,-0.69793 z"
           id="path4183-6"
           inkscape:connector-curvature="0" />
        <path
           style="fill:#542710;fill-opacity:1;fill-rule:evenodd;stroke:#000000;stroke-width:0.3989819;stroke-linecap:round;stroke-linejoin:round;stroke-miterlimit:4;stroke-dasharray:none;stroke-opacity:1"
           d="m 31.650626,40.04939 c -1.025943,9.014849 -1.025943,9.014849 -1.025943,9.014849 l -2.105344,-0.02654 1.358365,-9.01066 z"
           id="path4183-1"
           inkscape:connector-curvature="0" />
        <path
           style="fill:#542710;fill-opacity:1;fill-rule:evenodd;stroke:#000000;stroke-width:0.5;stroke-linecap:round;stroke-linejoin:round;stroke-miterlimit:4;stroke-dasharray:none;stroke-opacity:1"
           d="m 28.01907,38.041754 c 14.830509,0.505476 14.830509,0.505476 14.830509,0.505476 l 0,2.012712 -14.830509,-0.823273 z"
           id="path4183"
           inkscape:connector-curvature="0" />
        <path
           style="fill:#542710;fill-opacity:1;fill-rule:evenodd;stroke:#000000;stroke-width:0.38129646;stroke-linecap:round;stroke-linejoin:round;stroke-miterlimit:4;stroke-dasharray:none;stroke-opacity:1"
           d="m 38.883859,40.712129 c 1.031738,8.187129 1.031738,8.187129 1.031738,8.187129 l 2.117235,-0.0241 -1.366038,-8.183325 z"
           id="path4183-1-0"
           inkscape:connector-curvature="0" />
      </g>
      <path
         id="svg_3"
         d="m 21.944942,42.525055 -5.346487,2.472771 c 0,0 -1.753394,1.371658 0.07824,2.711655 1.831635,1.339997 5.340086,0.957714 5.340086,0.957714 l 5.010187,-2.493435 c 0,0 1.699095,-2.035969 0.617008,-2.983784 -1.081999,-0.947689 -6.017185,-0.464188 -5.698786,-0.664921 l -2.5e-4,0 z"
         inkscape:connector-curvature="0"
         style="fill:#000000" />
      <path
         id="svg_16"
         d="m 28.291925,29.505798 -8.871977,2.283527 c -2.349892,0.6049 -5.493384,2.802608 -2.487492,6.850708 3.005692,4.048225 3.546089,5.966469 4.311588,6.539337 2.254293,1.686821 6.581583,-2.828526 6.581583,-2.828526 l -2.891693,-4.416565 c 0,0 8.623278,0.186798 9.452375,-0.02103 0.829159,-0.207584 -5.472486,-8.199995 -6.094383,-8.407824 l -2e-6,3.68e-4 z"
         inkscape:connector-curvature="0"
         style="fill:#c80000;fill-opacity:1;stroke:#000000;stroke-width:0.57099998;stroke-linecap:round;stroke-linejoin:round;stroke-miterlimit:4;stroke-dasharray:none" />
      <path
         id="svg_4"
         d="m 17.338955,26.801847 -0.146009,1.754671 -1.898194,1.023729 -8.615078,-0.731182 0,-2.485977 10.658973,0.438759 3.09e-4,0 z"
         inkscape:connector-curvature="0"
         style="fill:#000000" />
      <path
         id="svg_5"
         d="m 3.94039,14.984321 c 0,0 -7.67168,2.272283 -1.606196,13.161433 0.10059,0.180687 -1.606196,-6.287987 3.212292,-7.165382 4.818587,-0.877396 -1.168097,-5.84941 -1.606196,-5.995562 l 10e-5,-4.89e-4 z"
         inkscape:connector-curvature="0"
         style="fill:#000000" />
      <path
         sodipodi:nodetypes="ccccccc"
         id="svg_6"
         d="M 1.424296,7.973953 2.883892,7.31508 9.747274,18.210222 7.775179,25.156469 6.096783,24.936784 c 0,0 -3.126068,-11.201528 -4.672687,-16.963016 1.1546522,-0.4648781 2e-4,1.85e-4 2e-4,1.85e-4 z"
         inkscape:connector-curvature="0"
         style="fill:#000000;stroke:#000000;stroke-width:0.290209" />
      <path
         id="svg_7"
         d="m 45.666882,17.87615 c 0.584038,0.731184 0.401997,5.842442 -0.292038,9.505085 -0.555264,2.930483 -4.638992,6.972347 -8.162983,9.826546 -3.523987,2.853954 -5.580383,1.067986 -5.580383,1.067986 l -3.605591,-8.71027 0.458939,-0.381302 8.274979,-8.23728 8.907078,-3.070948 0,1.83e-4 z"
         inkscape:connector-curvature="0"
         style="fill:#355841;fill-opacity:1;stroke:#010101;stroke-width:0.5;stroke-linecap:round;stroke-linejoin:round;stroke-miterlimit:4;stroke-dasharray:none;stroke-opacity:1" />
      <path
         id="svg_8"
         d="M 37.238899,2.065189 C 34.373607,2.1353 32.356113,3.882452 32.447815,7.18635 l -0.01663,3.062146 c -0.789396,0.106052 -1.994394,0.367242 -1.994394,0.99867 0,0.601414 1.214695,1.311448 2.080496,1.528749 l 0.04924,1.541221 c 0,0 1.501495,1.719523 3.348087,1.941775 l 1.249096,3.976217 6.753185,-4.259779 -1.957397,-4.043944 C 42.64256,11.623454 43.621193,10.972834 44.033894,9.650504 44.700322,7.514777 44.590828,5.210649 41.925099,3.342163 41.092084,2.758231 38.541009,2.033465 37.238511,2.065311 l 3.89e-4,-1.22e-4 z"
         inkscape:connector-curvature="0"
         style="fill:#803300;stroke:#000000;stroke-width:0.57099998;stroke-linecap:round;stroke-linejoin:round;stroke-miterlimit:4;stroke-dasharray:none" />
      <path
         id="svg_9"
         d="m 42.096653,15.982517 c 0,0 3.212292,-0.877396 4.23439,1.462245 1.022099,2.339825 0.292038,4.679588 -2.190193,5.849409 -2.482292,1.169945 -9.344978,4.24077 -9.344978,4.24077 0,0 -0.292038,0.438637 -1.460197,0.146334 -1.168095,-0.292547 -2.044193,-4.679649 -2.190191,-6.141895 -0.14603,-1.462368 3.066294,-2.193491 4.52669,-2.63225 1.460194,-0.438761 6.862881,-3.217038 6.42458,-2.924613 l -9.9e-5,0 z"
         inkscape:connector-curvature="0"
         style="fill:#396849;stroke:#000000;stroke-width:0.5;stroke-linecap:round;stroke-linejoin:round;stroke-miterlimit:4;stroke-dasharray:none;stroke-opacity:1" />
      <path
         id="svg_10"
         d="m 38.294899,8.274384 -5.142189,0.154404 -0.961315,0.046088 0.526001,3.197111 0.281136,-0.05403 -0.1451,-2.597653 5.123589,-0.389064 c 1.108894,-0.080136 0.916473,0.82929 0.997963,1.460717 0.09394,0.728373 -1.026196,0.999281 -0.462536,0.908265 0.563667,-0.09114 1.125198,-0.541818 0.843399,-1.907301 -0.140923,-0.682712 -0.618,-0.837788 -1.061096,-0.817432 l 1.49e-4,-0.0011 z"
         inkscape:connector-curvature="0"
         style="fill:#000c00" />
      <path
         id="svg_11"
         d="M 3.177192,7.473212 8.141779,8.49682 12.668467,23.705349 7.84988,24.87517 3.177192,7.473396 l 0,-1.83e-4 z"
         inkscape:connector-curvature="0"
         style="fill:#87ed88;fill-opacity:1;stroke:#000000;stroke-width:0.87062597;stroke-linecap:round;stroke-linejoin:round" />
      <path
         id="svg_12"
         d="m 17.881952,26.301107 -4.380387,-1.462368 -6.862882,1.462368 9.344975,1.754791 1.898195,-1.754791 9.9e-5,0 z"
         inkscape:connector-curvature="0"
         style="fill:#4d4d4d;stroke:#000000;stroke-width:0.27260199" />
      <path
         sodipodi:nodetypes="ccccccccccccscccccc"
         id="svg_13"
         d="m 27.928928,22.295183 c -0.663908,0.01198 -2.463194,0.255993 -2.937792,0.511864 -1.898197,1.023609 -3.93869,3.331955 -3.93869,3.331955 l -0.849669,-0.639862 -0.0063,-0.02506 -0.898718,-0.991213 c -0.114658,0.171152 -4.574287,-0.039 -6.285883,0.109781 0,0 -0.299609,1.317255 1.687896,1.319334 0.776657,-0.208683 1.384995,-0.04609 2.137794,0.166018 l -2.137794,2.614096 c 0,0 1.305107,1.282076 2.327205,-0.619053 0.660013,-0.429021 1.462385,-0.548078 1.673784,-0.607736 0.31267,0.982655 0.776278,2.052839 1.329596,2.052839 1.022099,0 12.411968,-1.173367 13.141968,-2.928158 0.73008,-1.754793 -1.460598,-4.532705 -1.606596,-4.679039 0,0 -0.609501,0.21516 -2.601294,0.235699 l -1.035597,0.148169 1.07e-4,0 z"
         inkscape:connector-curvature="0"
         style="fill:#803300;fill-opacity:1;stroke:#000000;stroke-width:0.57099998;stroke-linecap:round;stroke-linejoin:round;stroke-miterlimit:4;stroke-dasharray:none" />
      <path
         sodipodi:nodetypes="zzcczz"
         id="svg_14"
         d="m 35.280829,12.66626 c -0.312844,-0.25763 -0.612342,0.206978 -1.046221,0.575799 -0.433879,0.368821 -1.203995,0.455386 -1.772793,0.394566 l 0,0.486926 c 0.857155,0.216446 1.534518,0.02909 2.111294,-0.376044 0.576776,-0.405135 1.020564,-0.823617 0.70772,-1.081247 z"
         inkscape:connector-curvature="0"
         style="fill:#000000" />
      <path
         id="svg_15"
         d="m 32.354916,9.776607 1.532295,0.621036 c 0,0 -1.057999,-2.447957 -1.532295,-0.621036 z"
         inkscape:connector-curvature="0"
         style="fill:#000000" />
      <path
         sodipodi:nodetypes="zszcccccccscz"
         id="svg_20"
         d="m 33.680561,4.536634 c 0.316161,0.270355 3.154625,-1.89626 3.532925,-0.197161 0.3783,1.69911 -0.29788,1.3371155 -0.227001,1.89221 0.07088,0.5550945 0.7187,0.81101 0.529602,1.35179 -0.189102,0.540531 1.513,0.077141 1.513,0.077141 0,0 1.361698,-0.424761 1.437397,0.926778 0.0757,1.351801 0.0757,1.8925 0.0757,1.8925 l 2.572201,1.2742 c 0,0 1.512897,-0.695099 1.853397,-2.239849 0.3405,-1.54458 0.264801,-4.556731 -1.0592,-5.638161 -1.323898,-1.08125 -3.77494,-3.025615 -6.8465,-2.35553 -3.07156,0.670085 -3.260524,1.0531139 -3.759823,1.471501 0,0 0.06214,1.274226 0.378302,1.544581 z"
         inkscape:connector-curvature="0"
         style="fill:#2b1100" />
    </g>
  </g>
</svg>
